<?xml version="1.0" encoding="utf-8"?>
<!-- Generator: Adobe Illustrator 21.0.2, SVG Export Plug-In . SVG Version: 6.00 Build 0)  -->
<svg version="1.1" xmlns="http://www.w3.org/2000/svg" xmlns:xlink="http://www.w3.org/1999/xlink" x="0px" y="0px"
	 viewBox="0 0 81.5 81.5" style="enable-background:new 0 0 81.5 81.5;" xml:space="preserve">
<style type="text/css">
	.st0{fill:#CF000F;stroke:#000000;stroke-width:1.5;stroke-linecap:round;stroke-miterlimit:10;}
	.st1{fill:#FFFFFF;}
	.st2{display:none;}
</style>
<g id="Layer_1">
	<title>NewEventButton</title>
	<g id="Layer_2">
		<g id="Layer_3">
			<circle id="_Ellipse_" class="st0" cx="40.8" cy="40.8" r="40"/>
			<path class="st1" d="M60.5,21.3c1.2,0.7,1.6,2.2,0.9,3.1L38.3,60.3c-0.6,1-2.1,1.2-3.3,0.4c-1.2-0.7-1.6-2.2-0.9-3.1l23.1-35.9
				C57.9,20.7,59.3,20.5,60.5,21.3z"/>
			<path class="st1" d="M35,60.9l-15-13.3c-0.9-0.9-0.9-2.4,0-3.4c0.8-1,2.3-1.1,3.3-0.4l15,13.3c0.7,1,0.6,2.4-0.2,3.3
				C37.3,61.3,36.1,61.5,35,60.9z"/>
		</g>
	</g>
</g>
<g id="Layer_2_1_" class="st2">
	
		<image style="display:inline;overflow:visible;" width="75" height="75" xlink:href="../../../../../Documents/com.visualpharm.Icons8/ios/Very Basic/Checkmark_000000_75.png"  transform="matrix(0.7333 -1.470635e-03 1.470635e-03 0.7333 13.1949 13.3052)">
	</image>
</g>
</svg>
