<svg xmlns="http://www.w3.org/2000/svg" viewBox="0 0 711.78 195.06"><defs><style>.cls-1{fill:#f9fcfc;}</style></defs><title>HandmadeLogo</title><g id="Layer_2" data-name="Layer 2"><g id="Layer_1-2" data-name="Layer 1"><path class="cls-1" d="M353.79,195.05c-51.36-.71-96.88-17.13-136.06-50.61-.63-.54-1.29-1.05-1.88-1.64-1.4-1.38-3.47-2.76-1.65-5,1.58-1.9,3.4-.43,4.93.44a263.44,263.44,0,0,0,53.49,23.18c63.76,19.55,126.7,17.44,188.76-7.28.93-.36,1.87-.72,2.79-1.1,2.73-1.14,5.38-1.27,6.95,1.65s-.79,4.62-2.81,6.07c-19.24,13.75-40.74,22.44-63.56,28A208.21,208.21,0,0,1,353.79,195.05Z"/><path class="cls-1" d="M78.13,64.12h-51V97.7c2.41,1.83,5.6,1.11,8.43,1.85,2.54.66,4.38,1.63,4.07,4.65-.3,2.85-1.44,4.36-4.76,4.3-11.48-.18-23-.07-34.53-.07-1.11-4.35.71-6.28,4.42-7.6,8.17-2.91,8.12-3,8.12-11.55,0-20.82-.1-41.65.09-62.47,0-4-.76-6-5.23-6.32-3.17-.24-8.2.65-7.74-5.27s5.13-4,8.4-4c10.13-.17,20.26-.06,30.44-.06,1.32,4.53-.86,6.32-4.36,7.67-7.75,3-7.72,3.08-7.72,11.36V53.48H78.05c0-10.18,0-20.26,0-30.34,0-1.74-1.41-2-2.8-2.2-2.31-.33-4.63-.6-6.89-1.14a3.53,3.53,0,0,1-2.9-4.49c.37-1.9.35-4.16,3.26-4.16,12,0,23.91,0,35.76,0,1.28,4.3-.3,6.47-3.95,7.51-1.76.51-3.45,1.26-5.23,1.67-2.52.58-3.38,1.94-3.37,4.58C92,49.07,92,73.23,92,97.39c2.6,2.16,5.81,1.4,8.66,2.08s4.68,1.54,4.33,4.91c-.32,3.13-1.8,4.15-4.91,4.11-11.29-.15-22.59-.06-33.77-.06-1.76-5.22,1.33-7,4.93-7.7,6-1.1,7.38-4.46,7.05-10.15C77.77,82,78.13,73.31,78.13,64.12Z"/><path class="cls-1" d="M362.29,108.42c-1.65-5.11,1.11-6.85,4.67-7.51,5.69-1.06,7-4.21,6.8-9.78-.49-12.31-.29-24.66-.07-37,.07-3.53-.84-5.27-4.48-5.53a45.68,45.68,0,0,1-6.35-1.33c-1.46-.31-3-.4-3.09-2.52a3.74,3.74,0,0,1,2.36-4c6.73-3.24,13.92-4.21,21.3-4.82,1.81,3.45.78,7.1,1.82,10.43,23.22-15.49,35.9-15.33,46.66.74,6-5.65,12.56-10.18,21-11.51,17.41-2.76,27.74,5.71,28,23.42.16,10.67,0,21.33,0,32,0,7.21,0,7.33,7,8.68,3.54.69,5.6,2,4.54,6-.43,1.59-1.08,2.67-3,2.66-10.13-.05-20.26,0-30.28,0-1.58-4.65.55-6.81,4.19-7.8s4.75-3.09,4.64-6.87c-.3-10,0-20-.13-30-.17-14.89-9-20.8-22.92-15.49a32.82,32.82,0,0,0-8.14,4.81,7.5,7.5,0,0,0-3.18,6.79c.21,10.83.31,21.67,0,32.49-.14,4.6.78,7.36,5.88,7.39a7,7,0,0,1,2.87.77c2.05,1,2,2.8,1.62,4.73s-.81,3.19-3,3.19c-9.78,0-19.57,0-29.25,0-1.24-5,1.31-7.06,5-8.05,3.34-.9,4.23-2.79,4.15-6.16-.25-10.32,0-20.66-.16-31-.28-14.33-8.93-20-22.5-15.07-9.2,3.37-11.6,6.76-11.6,16.41,0,9.84.25,19.68-.11,29.5-.16,4.14,1.72,5.11,5.1,5.53,2.87.36,5.8.85,5.32,5-.3,2.5-1.15,3.92-4,3.89C382.73,108.35,372.58,108.42,362.29,108.42Z"/><path class="cls-1" d="M327.42,36.78c0-7.82,0-15.1,0-22.38,0-2-1.68-2.18-3.21-2.34l-9.78-1c-1.64-3.83-.36-5.92,3.11-7.19A64.57,64.57,0,0,1,339.69.07c1.23,2.4.78,4.43.78,6.39,0,28.82.11,57.64-.07,86.46,0,4.32,1,6.33,5.61,6.51,3.07.12,6.34.23,9.29,1.6,1.54,4-.26,6-4,6.9-5.71,1.4-11.57,1.24-17.37,1.74-2.13.19-2.93-.91-3.3-2.83s-1-3.81-1.57-5.66c-2.09-.41-2.73,1.3-3.84,2.1-10.13,7.28-21.2,8.9-32.67,4.31-10.86-4.36-15.28-13.7-16.9-24.71a52.35,52.35,0,0,1,.48-18.39C280.26,44.67,296.5,33.1,317,35.35,320.08,35.69,323.2,36.2,327.42,36.78Zm.09,32.72c0-5.83,0-11.65,0-17.48,0-1.61.22-3.11-1.65-4.29-12.53-7.88-31.33-1.46-35.53,12.46a42.54,42.54,0,0,0,.51,26.05c2.28,6.91,7.06,11,14.4,12.18,6.82,1,12.79-.91,18.43-4.54,2.73-1.77,4.11-3.93,3.93-7.41C327.29,80.83,327.51,75.16,327.51,69.5Z"/><path class="cls-1" d="M618.68,36.82V12.5L606,11c-1.64-3.67-.55-5.76,2.72-7,7.22-2.81,14.73-3.8,23-4V98.48l11.73,1.64c1.83.25,3.73.31,4,2.85s-1,3.81-3.1,4.49c-6.44,2.05-13.15,1.8-19.79,2.16-1.85.1-1.94-1.56-2.31-2.76-.63-2-1.11-4.12-1.81-6.78a32.91,32.91,0,0,1-20.59,9.77c-17,1.54-28.92-7.62-32.19-24.45A54,54,0,0,1,567,68.49c2.76-22.69,20.12-36,42.86-32.94C612.69,35.93,615.48,36.35,618.68,36.82Zm.24,32.74c0-6,0-12,0-18,0-1.44.14-2.77-1.5-3.85C605.69,40,586.61,46,582.2,59.2a41.85,41.85,0,0,0,.52,27.91c2.26,6.28,6.82,10,13.49,11.2,7.16,1.28,13.44-.72,19.32-4.68A6.92,6.92,0,0,0,619,87C618.76,81.21,618.92,75.38,618.92,69.56Z"/><path class="cls-1" d="M209.32,36c.4,3.86.7,6.8,1,9.76,2.55.28,3.45-1.64,4.76-2.69a34.93,34.93,0,0,1,23.63-7.94c12.19.33,19.74,6.91,21.17,19,1.48,12.44.63,25,.49,37.45-.06,5.22.93,8.18,6.71,8.23,3.07,0,5.4,1.06,5,5.15s-3.24,3.45-5.8,3.45c-9.32,0-18.63,0-28,0-1.45-4.25-.07-6.83,3.86-7.73,4.64-1.06,5.71-3.81,5.52-8.31-.37-8.81,0-17.65-.15-26.48a48.42,48.42,0,0,0-.85-8.93c-1.26-6.23-5.05-9.5-11.33-10.15a25.94,25.94,0,0,0-12.74,1.74c-8.92,3.69-10.75,6.38-10.75,16s.24,19-.11,28.48c-.16,4.39,1.12,6.37,5.57,6.59,3.79.19,6.56,1.65,5.11,6.35-.5,1.64-1.32,2.5-3.16,2.49-10.63,0-21.27,0-31.85,0-1.2-4.31.58-6.71,4.22-7.27,6.58-1,7.59-4.92,7.37-10.86-.47-12.14-.26-24.32-.07-36.48.05-3.33-.95-4.88-4.31-5.15a45.28,45.28,0,0,1-6.34-1.34C186.8,47,185.17,47,185,44.89a3.7,3.7,0,0,1,2.3-4C194.15,37.59,201.44,36.5,209.32,36Z"/><path class="cls-1" d="M565.62,99.05c.48,5-2.17,7.62-9.56,9.75-8.15,2.34-11.66.6-16.21-8.32-6.74,6.7-14.79,10-24.27,9.43-11.5-.75-19.15-9.07-18.88-20.35.19-7.58,4.27-12.39,10.88-15.32,6.92-3.07,14.31-4.32,21.76-5.22l8.78-1.08c.67-5.83.76-11.42-1.06-16.83-1.72-5.13-5.67-6.87-13.17-6.3-6.76.51-10.46,3.51-12,9.34-.52,2,.94,5.29-2.75,5.45-3.15.15-6.5,0-8.7-2.79a6.71,6.71,0,0,1-.35-8,17.72,17.72,0,0,1,4.15-4.91C514.47,36,526,33.27,538.57,36.34c7.44,1.81,11.36,6.93,12.22,15.78,1.09,11.13.36,22.3.46,33.46.11,12.23.91,13.12,13,13.23A8,8,0,0,1,565.62,99.05ZM538.51,77.2c-8,.45-15.26.76-22.22,3.2-5.15,1.81-7.41,6.06-6.23,10.95,1.24,5.11,6.41,8.59,12.65,8.5,6.78-.09,14.86-4.92,15.75-9.44a5.43,5.43,0,0,0,0-1Z"/><path class="cls-1" d="M126.24,59.43c-4.38.28-8.92.82-11.13-3.68s.25-8.49,3.82-11.35c10.37-8.35,22.16-11.19,35.13-8,7.41,1.82,10.81,7.31,11.82,14.49,1.51,10.77.41,21.61.72,32.41.05,1.67,0,3.33,0,5,0,8.58,2,10.58,10.59,10.56h3.9c.15,5.38-3.16,8.36-10.88,10.2s-10.74.17-15.08-8.72a29.89,29.89,0,0,1-24.25,9.56c-9.56-.57-16.67-6.5-18.54-15.31s1.46-15.85,9.52-19.84C129.15,71.14,137.06,70,145,69l8.59-1.09c.09-4.81.44-9.26-.44-13.7-1.24-6.32-4-8.93-9.82-9.39-8.35-.66-13.58,1.88-15.57,7.78A68.82,68.82,0,0,0,126.24,59.43ZM153.7,77.26c-7.8.33-14.92.74-21.76,3-5.73,1.89-8,6.33-6.42,11.63C127,96.81,132,100,138,99.86c6.41-.1,14.58-4.82,15.6-9a4.67,4.67,0,0,0,.06-1C153.7,85.87,153.7,81.91,153.7,77.26Z"/><path class="cls-1" d="M710.2,95.15c1.53,5.21-.65,8.36-4.6,10.7-10.85,6.42-33,5.29-43-2.29-8.3-6.26-10.75-15.3-11.48-25a56.07,56.07,0,0,1,1.47-17.36c4.71-19.6,22-30.06,41.53-25a21.8,21.8,0,0,1,16,15c2,6,1.93,12.08,1.17,18.27-.41,3.32-1.9,4.37-5.22,4.33-12.16-.18-24.32-.09-36.48,0-1.8,0-3.67-.39-5.37.54C663.43,88.61,671.58,98,685.68,99,694.1,99.61,702.18,97.88,710.2,95.15ZM698.79,64.28c-.26-7.29-.83-14-7.41-17.54a17.68,17.68,0,0,0-19,.93c-5.72,3.82-7.31,9.8-7.67,16.61Z"/><path class="cls-1" d="M476.13,182.84c-1.11-2,.25-3.61.87-5.21,2.82-7.28,5.61-14.57,7.3-22.22,2.17-9.88,0-12.69-10.15-13.23-7.84-.42-15.61.53-23.38,1.39-1.88.21-4,1.16-5.57-.91.12-2.62,2.27-3.55,4.1-4.54,13.79-7.45,28.35-8.74,43.51-5.4,4.13.91,6,3.41,5.7,7.46-1,15.61-6,29.55-17.27,40.81C479.9,182.33,478.48,184.05,476.13,182.84Z"/></g></g></svg>